#N canvas 581 259 535 471 10;
#X obj 215 303 dac~;
#X obj 374 176 print;
#X obj 374 129 loadbang;
#X msg 374 151 WELCOME TO LIBPD;
#X obj 217 78 loadbang;
#X obj 217 100 metro 200;
#X obj 217 122 random 20;
#X obj 217 166 mtof;
#X obj 217 213 osc~;
#X obj 217 144 + 50;
#X obj 217 235 *~ 0.5;
#X obj 158 30 r oscControl;
#X obj 158 52 change;
#X obj 272 206 s note;
#X connect 2 0 3 0;
#X connect 3 0 1 0;
#X connect 4 0 5 0;
#X connect 5 0 6 0;
#X connect 6 0 9 0;
#X connect 7 0 8 0;
#X connect 7 0 13 0;
#X connect 8 0 10 0;
#X connect 9 0 7 0;
#X connect 10 0 0 0;
#X connect 10 0 0 1;
#X connect 11 0 12 0;
#X connect 12 0 5 0;
