#N canvas 573 76 535 553 10;
#X obj 76 58 adc~ 1;
#X obj 77 403 dac~ 1;
#X obj 77 169 *~ 0.5;
#X obj 132 163 *~ 0.5;
#X obj 286 184 r \$0turn;
#X obj 287 209 switch~;
#X obj 125 135 phasor~ 200;
#X obj 123 103 r \$0freq;
#X connect 0 0 2 0;
#X connect 2 0 1 0;
#X connect 3 0 1 0;
#X connect 4 0 5 0;
#X connect 6 0 3 0;
#X connect 7 0 6 0;
