#N canvas 188 169 535 471 10;
#X obj 105 95 dac~ 1;
#X obj 389 41 r \$0turn;
#X obj 389 63 switch~;
#X obj 105 46 r \$0freq;
#X obj 105 69 phasor~ 200;
#X connect 1 0 2 0;
#X connect 3 0 4 0;
#X connect 4 0 0 0;
