#N canvas 905 147 535 471 10;
#X obj 76 58 adc~ 1 2;
#X obj 75 137 *~ 1;
#X obj 122 135 *~ 1;
#X obj 143 97 r volume;
#X obj 76 195 dac~ 1 2;
#X obj 288 156 s osc;
#X obj 223 60 loadbang;
#X obj 288 104 osc~ 440;
#X obj 288 134 snapshot~;
#X msg 223 82 1;
#X obj 223 104 metro 1;
#X obj 172 176 * 100;
#X connect 0 0 1 0;
#X connect 0 1 2 0;
#X connect 1 0 4 0;
#X connect 2 0 4 1;
#X connect 3 0 2 1;
#X connect 3 0 1 1;
#X connect 3 0 11 0;
#X connect 6 0 9 0;
#X connect 7 0 8 0;
#X connect 8 0 5 0;
#X connect 9 0 10 0;
#X connect 10 0 8 0;
#X connect 11 0 10 1;
