#N canvas 188 169 535 471 10;
#X obj 76 58 adc~ 1;
#X obj 76 195 dac~ 1;
#X obj 77 169 *~ 0.5;
#X obj 129 170 *~ 0.5;
#X obj 266 129 r \$0turn;
#X obj 264 149 switch~;
#X obj 130 140 osc~ 1000;
#X obj 128 111 r \$0freq;
#X connect 0 0 2 0;
#X connect 2 0 1 0;
#X connect 3 0 1 0;
#X connect 4 0 5 0;
#X connect 6 0 3 0;
#X connect 7 0 6 0;
