#N canvas 632 89 535 471 10;
#X obj 170 237 dac~ 1 2 3;
#X obj 170 212 osc~ 400;
#X obj 170 102 loadbang;
#X msg 170 123 1;
#X obj 170 145 metro 600;
#X obj 170 166 random 300;
#X obj 170 189 + 200;
#X connect 1 0 0 0;
#X connect 1 0 0 1;
#X connect 1 0 0 2;
#X connect 2 0 3 0;
#X connect 3 0 4 0;
#X connect 4 0 5 0;
#X connect 5 0 6 0;
#X connect 6 0 1 0;
